<!-- Modified from reuse.svg -->
<svg height="21" viewBox="0 0 21 21" width="21" xmlns="http://www.w3.org/2000/svg">
    <g transform="rotate(90 10.5 10.5)">
        <g fill="none" fill-rule="evenodd" stroke="#2a2e3b" stroke-linecap="round" stroke-linejoin="round"
            transform="translate(2 2)">
            <g transform="matrix(0 -1 1 0 .5 16.5)">
                <g transform="rotate(-15.6 16.25 5.75)">
                    <path d="m16.25 1.75v4h-4" transform="matrix(0 1 1 0 10.25 -10.25)" />
                </g>
                <path d="m16 6c-2.8366699-1.33333333-5.6700033-3-8.5-3-2.82999674 0-5.32999674 1-7.5 3" />
            </g>
            <g transform="matrix(0 1 -1 0 16 0)">
                <g transform="rotate(-15.6 16.75 5.25)">
                    <path d="m16.75 1.25v4h-4" transform="matrix(0 1 1 0 11.25 -11.25)" />
                </g>
                <path d="m16.5 5.5c-2.8366699-1.33333333-5.6700033-3-8.5-3-2.82999674 0-5.32999674 1-7.5 3" />
            </g>
        </g>
    </g>
</svg>